<?xml version="1.0" encoding="UTF-8" standalone="no"?>
<svg
   xmlns:dc="http://purl.org/dc/elements/1.1/"
   xmlns:cc="http://creativecommons.org/ns#"
   xmlns:rdf="http://www.w3.org/1999/02/22-rdf-syntax-ns#"
   xmlns:svg="http://www.w3.org/2000/svg"
   xmlns="http://www.w3.org/2000/svg"
   xmlns:sodipodi="http://sodipodi.sourceforge.net/DTD/sodipodi-0.dtd"
   xmlns:inkscape="http://www.inkscape.org/namespaces/inkscape"
   inkscape:export-ydpi="576"
   inkscape:export-xdpi="576"
   inkscape:export-filename="D:\project oktober adnan\Flat(export)\PNG\18 - Heat Wave.png"
   sodipodi:docname="19 - Cloudy.svg"
   inkscape:version="1.0 (4035a4fb49, 2020-05-01)"
   id="svg831"
   version="1.1"
   viewBox="0 0 22.577778 22.577778"
   height="64pt"
   width="64pt">
  <defs
     id="defs825">
    <pattern
       y="0"
       x="0"
       height="6"
       width="6"
       patternUnits="userSpaceOnUse"
       id="EMFhbasepattern" />
    <pattern
       y="0"
       x="0"
       height="6"
       width="6"
       patternUnits="userSpaceOnUse"
       id="EMFhbasepattern-9" />
    <pattern
       y="0"
       x="0"
       height="6"
       width="6"
       patternUnits="userSpaceOnUse"
       id="EMFhbasepattern-0" />
    <pattern
       y="0"
       x="0"
       height="6"
       width="6"
       patternUnits="userSpaceOnUse"
       id="EMFhbasepattern-7" />
    <pattern
       y="0"
       x="0"
       height="6"
       width="6"
       patternUnits="userSpaceOnUse"
       id="EMFhbasepattern-2" />
    <pattern
       y="0"
       x="0"
       height="6"
       width="6"
       patternUnits="userSpaceOnUse"
       id="EMFhbasepattern-98" />
    <pattern
       y="0"
       x="0"
       height="6"
       width="6"
       patternUnits="userSpaceOnUse"
       id="EMFhbasepattern-6" />
    <pattern
       y="0"
       x="0"
       height="6"
       width="6"
       patternUnits="userSpaceOnUse"
       id="EMFhbasepattern-01" />
    <pattern
       y="0"
       x="0"
       height="6"
       width="6"
       patternUnits="userSpaceOnUse"
       id="EMFhbasepattern-07" />
    <pattern
       y="0"
       x="0"
       height="6"
       width="6"
       patternUnits="userSpaceOnUse"
       id="EMFhbasepattern-8" />
    <pattern
       y="0"
       x="0"
       height="6"
       width="6"
       patternUnits="userSpaceOnUse"
       id="EMFhbasepattern-4" />
    <pattern
       y="0"
       x="0"
       height="6"
       width="6"
       patternUnits="userSpaceOnUse"
       id="EMFhbasepattern-40" />
    <pattern
       y="0"
       x="0"
       height="6"
       width="6"
       patternUnits="userSpaceOnUse"
       id="EMFhbasepattern-08" />
    <pattern
       y="0"
       x="0"
       height="6"
       width="6"
       patternUnits="userSpaceOnUse"
       id="EMFhbasepattern-04" />
    <pattern
       y="0"
       x="0"
       height="6"
       width="6"
       patternUnits="userSpaceOnUse"
       id="EMFhbasepattern-014" />
    <pattern
       y="0"
       x="0"
       height="6"
       width="6"
       patternUnits="userSpaceOnUse"
       id="EMFhbasepattern-27" />
    <pattern
       y="0"
       x="0"
       height="6"
       width="6"
       patternUnits="userSpaceOnUse"
       id="EMFhbasepattern-09" />
    <pattern
       y="0"
       x="0"
       height="6"
       width="6"
       patternUnits="userSpaceOnUse"
       id="EMFhbasepattern-5" />
    <pattern
       y="0"
       x="0"
       height="6"
       width="6"
       patternUnits="userSpaceOnUse"
       id="EMFhbasepattern-018" />
  </defs>
  <sodipodi:namedview
     inkscape:lockguides="true"
     inkscape:document-rotation="0"
     inkscape:snap-global="true"
     inkscape:snap-nodes="false"
     inkscape:bbox-nodes="true"
     inkscape:snap-bbox="true"
     showguides="true"
     inkscape:snap-midpoints="true"
     inkscape:snap-smooth-nodes="true"
     inkscape:snap-intersection-paths="true"
     inkscape:object-paths="true"
     inkscape:showpageshadow="false"
     inkscape:pagecheckerboard="true"
     inkscape:window-maximized="1"
     inkscape:window-y="-8"
     inkscape:window-x="-8"
     inkscape:window-height="706"
     inkscape:window-width="1366"
     units="pt"
     showgrid="false"
     inkscape:current-layer="layer1"
     inkscape:document-units="pt"
     inkscape:cy="42.778201"
     inkscape:cx="34.109987"
     inkscape:zoom="4.4415145"
     inkscape:pageshadow="2"
     inkscape:pageopacity="0.0"
     borderopacity="1.0"
     bordercolor="#666666"
     pagecolor="#ffffff"
     id="base">
    <inkscape:grid
       id="grid1378"
       type="xygrid" />
    <sodipodi:guide
       inkscape:locked="true"
       id="guide1380"
       orientation="78.000048,0"
       position="0.97013831,21.607643" />
    <sodipodi:guide
       inkscape:locked="true"
       id="guide1382"
       orientation="0,78.000005"
       position="0.97013831,0.97013129" />
    <sodipodi:guide
       inkscape:locked="true"
       id="guide1384"
       orientation="-78.000048,0"
       position="21.607639,0.97013129" />
    <sodipodi:guide
       inkscape:locked="true"
       id="guide1386"
       orientation="0,-78.000005"
       position="21.607639,21.607643" />
  </sodipodi:namedview>
  <metadata
     id="metadata828">
    <rdf:RDF>
      <cc:Work
         rdf:about="">
        <dc:format>image/svg+xml</dc:format>
        <dc:type
           rdf:resource="http://purl.org/dc/dcmitype/StillImage" />
        <dc:title></dc:title>
      </cc:Work>
    </rdf:RDF>
  </metadata>
  <g
     transform="translate(0,-274.42223)"
     id="layer1"
     inkscape:groupmode="layer"
     inkscape:label="Icon">
    <g
       transform="matrix(1.2576969,0,0,1.2576969,-37.723995,-77.176692)"
       style="display:inline;stroke-width:0.795104"
       id="g1245">
      <path
         id="path1207"
         d="m 39.228516,282.71484 c -1.556639,0.0846 -2.786857,0.73521 -3.328125,1.05664 -0.457251,-0.54776 -1.113038,-0.92773 -1.88086,-0.92773 -1.374269,0 -2.49414,1.11793 -2.49414,2.49219 0,0.64186 0.349573,1.15702 0.74414,1.59961 -0.307499,0.0939 -0.628136,0.1835 -0.886719,0.46093 -0.335575,0.36005 -0.56347,0.90393 -0.605468,1.65625 -0.0013,0.01 -0.0905,0.6394 0.25,1.28516 0.343088,0.65068 1.145031,1.28632 2.71875,1.30078 0.0077,3.2e-4 0.791432,0.0311 1.984375,0.0391 a 0.26460996,0.26460996 0 0 0 0.02734,0 l 10.009766,-0.98242 a 0.26460996,0.26460996 0 0 0 0.08398,-0.0215 c 0.41376,-0.18833 0.889338,-0.52967 1.142579,-1.12305 0.25324,-0.59337 0.269074,-1.41082 -0.138672,-2.50195 a 0.26460996,0.26460996 0 0 0 -0.0098,-0.0215 c 0,0 -0.220236,-0.46101 -0.671875,-0.86914 -0.416091,-0.376 -1.082178,-0.67301 -1.90625,-0.5664 -1.476811,-2.33351 -3.399884,-2.96598 -5.039062,-2.87696 z"
         style="color:#000000;font-style:normal;font-variant:normal;font-weight:normal;font-stretch:normal;font-size:medium;line-height:normal;font-family:sans-serif;font-variant-ligatures:normal;font-variant-position:normal;font-variant-caps:normal;font-variant-numeric:normal;font-variant-alternates:normal;font-variant-east-asian:normal;font-feature-settings:normal;font-variation-settings:normal;text-indent:0;text-align:start;text-decoration:none;text-decoration-line:none;text-decoration-style:solid;text-decoration-color:#000000;letter-spacing:normal;word-spacing:normal;text-transform:none;writing-mode:lr-tb;direction:ltr;text-orientation:mixed;dominant-baseline:auto;baseline-shift:baseline;text-anchor:start;white-space:normal;shape-padding:0;shape-margin:0;inline-size:0;clip-rule:nonzero;display:inline;overflow:visible;visibility:visible;isolation:auto;mix-blend-mode:normal;color-interpolation:sRGB;color-interpolation-filters:linearRGB;solid-color:#000000;solid-opacity:1;vector-effect:none;fill:#aabfd0;fill-opacity:1;fill-rule:nonzero;stroke:none;stroke-width:0.420743;stroke-linecap:round;stroke-linejoin:round;stroke-miterlimit:4;stroke-dasharray:none;stroke-dashoffset:0;stroke-opacity:1;color-rendering:auto;image-rendering:auto;shape-rendering:auto;text-rendering:auto;enable-background:accumulate;stop-color:#000000" />
      <path
         transform="matrix(0.26458334,0,0,0.26458334,0,280.06666)"
         d="m 157.55859,25.791016 c -3.53059,0 -6.24844,1.696528 -8.47461,3.861328 -1.6125,-1.322192 -3.54008,-2.289063 -5.89062,-2.289063 -5.71718,0 -10.42188,4.706613 -10.42188,10.423828 0,0.49818 0.25104,0.588791 0.33204,1.017579 -0.0969,0.06198 -0.13379,0.0203 -0.23047,0.08984 -1.54866,1.101684 -2.88327,2.765296 -3.79102,4.888672 1.26741,0.03707 3.12792,0.08255 5.96289,0.101563 a 1.0001006,1.0001006 0 0 0 0.10352,0 l 37.83203,-3.712891 a 1.0001006,1.0001006 0 0 0 0.31641,-0.08203 c 1.30559,-0.594264 2.7671,-1.600499 3.77343,-3.21875 -0.49091,-0.499137 -1.06958,-1.004947 -1.75,-1.462891 -1.96045,-1.319433 -4.46043,-1.473707 -7.05078,-1.099609 -1.82379,-4.684649 -5.4584,-8.517578 -10.71094,-8.517578 z"
         style="color:#000000;font-style:normal;font-variant:normal;font-weight:normal;font-stretch:normal;font-size:medium;line-height:normal;font-family:sans-serif;font-variant-ligatures:normal;font-variant-position:normal;font-variant-caps:normal;font-variant-numeric:normal;font-variant-alternates:normal;font-variant-east-asian:normal;font-feature-settings:normal;font-variation-settings:normal;text-indent:0;text-align:start;text-decoration:none;text-decoration-line:none;text-decoration-style:solid;text-decoration-color:#000000;letter-spacing:normal;word-spacing:normal;text-transform:none;writing-mode:lr-tb;direction:ltr;text-orientation:mixed;dominant-baseline:auto;baseline-shift:baseline;text-anchor:start;white-space:normal;shape-padding:0;shape-margin:0;inline-size:0;clip-rule:nonzero;display:inline;overflow:visible;visibility:visible;isolation:auto;mix-blend-mode:normal;color-interpolation:sRGB;color-interpolation-filters:linearRGB;solid-color:#000000;solid-opacity:1;vector-effect:none;fill:#7d8e9e;fill-opacity:1;fill-rule:nonzero;stroke:none;stroke-width:1.59021;stroke-linecap:round;stroke-linejoin:round;stroke-miterlimit:4;stroke-dasharray:none;stroke-dashoffset:0;stroke-opacity:1;color-rendering:auto;image-rendering:auto;shape-rendering:auto;text-rendering:auto;enable-background:accumulate;stop-color:#000000"
         id="path1217" />
      <path
         id="path1169"
         d="m 41.6875,287.8125 c -1.062428,0 -1.842205,0.64529 -2.246094,1.48828 -0.301123,-0.604 -0.837343,-1.07226 -1.554687,-1.07226 -1.011016,0 -1.835938,0.82491 -1.835938,1.83593 0,0.30825 0.154575,0.56321 0.294922,0.82032 -0.212887,0.0435 -0.422745,0.0599 -0.654297,0.22461 -0.340091,0.24194 -0.650966,0.65089 -0.822265,1.27929 a 0.26460996,0.26460996 0 0 0 -0.0059,0.0352 c 0,0 -0.06949,0.47669 0.191407,0.95703 0.2609,0.48034 0.871581,0.93894 2.021484,0.94922 0.0069,2.7e-4 1.346889,0.0541 3.03125,0.0176 1.67642,-0.0363 3.674613,-0.16036 5.066406,-0.52539 0.01054,-7.1e-4 0.58124,-0.0373 1.0625,-0.42383 0.242843,-0.19505 0.461119,-0.48998 0.544922,-0.89063 0.0838,-0.40064 0.03592,-0.89498 -0.197266,-1.50195 a 0.26460996,0.26460996 0 0 0 -0.0098,-0.0215 c 0,0 -0.223569,-0.46045 -0.703125,-0.78321 -0.414935,-0.27926 -1.077795,-0.35416 -1.84375,-0.0508 -0.0912,-1.29125 -1.101977,-2.33789 -2.339844,-2.33789 z"
         style="color:#000000;font-style:normal;font-variant:normal;font-weight:normal;font-stretch:normal;font-size:medium;line-height:normal;font-family:sans-serif;font-variant-ligatures:normal;font-variant-position:normal;font-variant-caps:normal;font-variant-numeric:normal;font-variant-alternates:normal;font-variant-east-asian:normal;font-feature-settings:normal;font-variation-settings:normal;text-indent:0;text-align:start;text-decoration:none;text-decoration-line:none;text-decoration-style:solid;text-decoration-color:#000000;letter-spacing:normal;word-spacing:normal;text-transform:none;writing-mode:lr-tb;direction:ltr;text-orientation:mixed;dominant-baseline:auto;baseline-shift:baseline;text-anchor:start;white-space:normal;shape-padding:0;shape-margin:0;inline-size:0;clip-rule:nonzero;display:inline;overflow:visible;visibility:visible;isolation:auto;mix-blend-mode:normal;color-interpolation:sRGB;color-interpolation-filters:linearRGB;solid-color:#000000;solid-opacity:1;vector-effect:none;fill:#d0e2ed;fill-opacity:1;fill-rule:nonzero;stroke:none;stroke-width:0.420743;stroke-linecap:round;stroke-linejoin:round;stroke-miterlimit:4;stroke-dasharray:none;stroke-dashoffset:0;stroke-opacity:1;color-rendering:auto;image-rendering:auto;shape-rendering:auto;text-rendering:auto;enable-background:accumulate;stop-color:#000000" />
      <path
         transform="matrix(0.26458334,0,0,0.26458334,0,280.06666)"
         d="m 149.43945,9.9785156 c -0.39491,-0.00118 -0.78662,0.010222 -1.17383,0.03125 -5.88335,0.319748 -10.53434,2.777334 -12.58007,3.992187 -1.7282,-2.070274 -4.20542,-3.505859 -7.10743,-3.505859 -4.36081,0 -8.03401,2.98228 -9.10351,7.011718 5.45728,-4.006597 12.12666,-3.379173 17.19531,1.689454 0.37187,0.371905 7.25007,-7.154011 17.6211,-3.439454 12.24137,4.384441 7.26881,10.064362 16.1875,9.3125 2.55823,-0.215755 5.36239,6.048147 7.74218,8.375 0.21785,-1.912149 -0.0755,-4.237826 -1.1289,-7.05664 a 1.0001006,1.0001006 0 0 0 -0.0371,-0.08008 c 0,0 -0.83208,-1.742618 -2.53907,-3.285156 -1.57262,-1.421103 -4.09047,-2.543561 -7.20507,-2.140626 C 162.07775,12.61447 155.3632,9.996206 149.43945,9.9785156 Z"
         style="fill:#7d8e9e;fill-opacity:1;stroke:none;stroke-width:1.59021;stroke-linecap:round;stroke-linejoin:round;stroke-opacity:1"
         id="path1236" />
    </g>
  </g>
</svg>
