<?xml version="1.0" encoding="UTF-8" standalone="no"?>
<svg
   xmlns:dc="http://purl.org/dc/elements/1.1/"
   xmlns:cc="http://creativecommons.org/ns#"
   xmlns:rdf="http://www.w3.org/1999/02/22-rdf-syntax-ns#"
   xmlns:svg="http://www.w3.org/2000/svg"
   xmlns="http://www.w3.org/2000/svg"
   xmlns:sodipodi="http://sodipodi.sourceforge.net/DTD/sodipodi-0.dtd"
   xmlns:inkscape="http://www.inkscape.org/namespaces/inkscape"
   inkscape:export-ydpi="576"
   inkscape:export-xdpi="576"
   inkscape:export-filename="C:\Users\RainBoyz\Desktop\DONE\Flat [Done!]\EX\2 - Raining.png"
   sodipodi:docname="Template Export.svg"
   inkscape:version="1.0 (4035a4fb49, 2020-05-01)"
   id="svg831"
   version="1.1"
   viewBox="0 0 22.577778 22.577778"
   height="64pt"
   width="64pt">
  <defs
     id="defs825">
    <pattern
       y="0"
       x="0"
       height="6"
       width="6"
       patternUnits="userSpaceOnUse"
       id="EMFhbasepattern" />
    <pattern
       y="0"
       x="0"
       height="6"
       width="6"
       patternUnits="userSpaceOnUse"
       id="EMFhbasepattern-9" />
    <pattern
       y="0"
       x="0"
       height="6"
       width="6"
       patternUnits="userSpaceOnUse"
       id="EMFhbasepattern-0" />
    <pattern
       y="0"
       x="0"
       height="6"
       width="6"
       patternUnits="userSpaceOnUse"
       id="EMFhbasepattern-7" />
    <pattern
       y="0"
       x="0"
       height="6"
       width="6"
       patternUnits="userSpaceOnUse"
       id="EMFhbasepattern-2" />
    <pattern
       y="0"
       x="0"
       height="6"
       width="6"
       patternUnits="userSpaceOnUse"
       id="EMFhbasepattern-98" />
    <pattern
       y="0"
       x="0"
       height="6"
       width="6"
       patternUnits="userSpaceOnUse"
       id="EMFhbasepattern-6" />
    <pattern
       y="0"
       x="0"
       height="6"
       width="6"
       patternUnits="userSpaceOnUse"
       id="EMFhbasepattern-01" />
    <pattern
       y="0"
       x="0"
       height="6"
       width="6"
       patternUnits="userSpaceOnUse"
       id="EMFhbasepattern-07" />
    <pattern
       y="0"
       x="0"
       height="6"
       width="6"
       patternUnits="userSpaceOnUse"
       id="EMFhbasepattern-8" />
    <pattern
       y="0"
       x="0"
       height="6"
       width="6"
       patternUnits="userSpaceOnUse"
       id="EMFhbasepattern-4" />
    <pattern
       y="0"
       x="0"
       height="6"
       width="6"
       patternUnits="userSpaceOnUse"
       id="EMFhbasepattern-40" />
    <pattern
       y="0"
       x="0"
       height="6"
       width="6"
       patternUnits="userSpaceOnUse"
       id="EMFhbasepattern-08" />
    <pattern
       y="0"
       x="0"
       height="6"
       width="6"
       patternUnits="userSpaceOnUse"
       id="EMFhbasepattern-04" />
    <pattern
       y="0"
       x="0"
       height="6"
       width="6"
       patternUnits="userSpaceOnUse"
       id="EMFhbasepattern-014" />
    <pattern
       y="0"
       x="0"
       height="6"
       width="6"
       patternUnits="userSpaceOnUse"
       id="EMFhbasepattern-27" />
    <pattern
       y="0"
       x="0"
       height="6"
       width="6"
       patternUnits="userSpaceOnUse"
       id="EMFhbasepattern-09" />
    <pattern
       y="0"
       x="0"
       height="6"
       width="6"
       patternUnits="userSpaceOnUse"
       id="EMFhbasepattern-5" />
    <pattern
       y="0"
       x="0"
       height="6"
       width="6"
       patternUnits="userSpaceOnUse"
       id="EMFhbasepattern-018" />
  </defs>
  <sodipodi:namedview
     inkscape:document-rotation="0"
     inkscape:snap-global="true"
     inkscape:snap-nodes="false"
     inkscape:bbox-nodes="true"
     inkscape:snap-bbox="true"
     showguides="true"
     inkscape:snap-midpoints="true"
     inkscape:snap-smooth-nodes="true"
     inkscape:snap-intersection-paths="true"
     inkscape:object-paths="true"
     inkscape:showpageshadow="false"
     inkscape:pagecheckerboard="true"
     inkscape:window-maximized="1"
     inkscape:window-y="-8"
     inkscape:window-x="-8"
     inkscape:window-height="715"
     inkscape:window-width="1366"
     units="pt"
     showgrid="false"
     inkscape:current-layer="layer1"
     inkscape:document-units="pt"
     inkscape:cy="42.778201"
     inkscape:cx="-4.2778197"
     inkscape:zoom="4.4415145"
     inkscape:pageshadow="2"
     inkscape:pageopacity="0.0"
     borderopacity="1.0"
     bordercolor="#666666"
     pagecolor="#ffffff"
     id="base">
    <inkscape:grid
       id="grid1378"
       type="xygrid" />
    <sodipodi:guide
       inkscape:locked="false"
       id="guide1380"
       orientation="78.000048,0"
       position="0.97013831,21.607643" />
    <sodipodi:guide
       inkscape:locked="false"
       id="guide1382"
       orientation="0,78.000005"
       position="0.97013831,0.97013129" />
    <sodipodi:guide
       inkscape:locked="false"
       id="guide1384"
       orientation="-78.000048,0"
       position="21.607639,0.97013129" />
    <sodipodi:guide
       inkscape:locked="false"
       id="guide1386"
       orientation="0,-78.000005"
       position="21.607639,21.607643" />
  </sodipodi:namedview>
  <metadata
     id="metadata828">
    <rdf:RDF>
      <cc:Work
         rdf:about="">
        <dc:format>image/svg+xml</dc:format>
        <dc:type
           rdf:resource="http://purl.org/dc/dcmitype/StillImage" />
        <dc:title></dc:title>
      </cc:Work>
    </rdf:RDF>
  </metadata>
  <g
     transform="translate(0,-274.42223)"
     id="layer1"
     inkscape:groupmode="layer"
     inkscape:label="Icon">
    <g
       transform="matrix(1.257697,0,0,1.257697,39.002889,-38.814332)"
       id="g697">
      <g
         id="g670">
        <path
           style="color:#000000;font-style:normal;font-variant:normal;font-weight:normal;font-stretch:normal;font-size:medium;line-height:normal;font-family:sans-serif;font-variant-ligatures:normal;font-variant-position:normal;font-variant-caps:normal;font-variant-numeric:normal;font-variant-alternates:normal;font-variant-east-asian:normal;font-feature-settings:normal;font-variation-settings:normal;text-indent:0;text-align:start;text-decoration:none;text-decoration-line:none;text-decoration-style:solid;text-decoration-color:#000000;letter-spacing:normal;word-spacing:normal;text-transform:none;writing-mode:lr-tb;direction:ltr;text-orientation:mixed;dominant-baseline:auto;baseline-shift:baseline;text-anchor:start;white-space:normal;shape-padding:0;shape-margin:0;inline-size:0;clip-rule:nonzero;display:inline;overflow:visible;visibility:visible;isolation:auto;mix-blend-mode:normal;color-interpolation:sRGB;color-interpolation-filters:linearRGB;solid-color:#000000;solid-opacity:1;vector-effect:none;fill:#7d8e9e;fill-opacity:1;fill-rule:nonzero;stroke:none;stroke-width:0.529167;stroke-linecap:round;stroke-linejoin:round;stroke-miterlimit:4;stroke-dasharray:none;stroke-dashoffset:0;stroke-opacity:1;color-rendering:auto;image-rendering:auto;shape-rendering:auto;text-rendering:auto;enable-background:accumulate;stop-color:#000000"
           d="m -21.783203,250.11914 c -1.544391,0.0857 -2.759802,0.7362 -3.304688,1.07422 -0.446851,-0.55541 -1.112376,-0.94922 -1.898437,-0.94922 -1.374269,0 -2.494141,1.11988 -2.494141,2.49414 0,0.63697 0.285876,1.18707 0.697266,1.62695 -0.279752,0.09 -0.570041,0.15003 -0.8125,0.40039 -0.347397,0.35873 -0.589453,0.91134 -0.632813,1.6875 -0.0013,0.01 -0.0905,0.63938 0.25,1.28516 0.343088,0.65069 1.145029,1.28637 2.71875,1.30078 0.0077,3.2e-4 0.791433,0.0311 1.984375,0.0391 a 0.26460996,0.26460996 0 0 0 0.02734,0 l 10.009766,-0.98242 a 0.26460996,0.26460996 0 0 0 0.08398,-0.0215 c 0.413759,-0.18833 0.889338,-0.52967 1.142578,-1.12305 0.253241,-0.59337 0.269074,-1.41082 -0.138672,-2.50195 a 0.26460996,0.26460996 0 0 0 -0.0098,-0.0215 c 0,0 -0.227895,-0.47862 -0.691406,-0.89453 -0.42585,-0.38211 -1.108869,-0.6699 -1.941407,-0.53125 -1.450589,-2.3343 -3.360142,-2.97323 -4.990234,-2.88281 z"
           id="path1707" />
        <path
           id="path1737"
           style="color:#000000;font-style:normal;font-variant:normal;font-weight:normal;font-stretch:normal;font-size:medium;line-height:normal;font-family:sans-serif;font-variant-ligatures:normal;font-variant-position:normal;font-variant-caps:normal;font-variant-numeric:normal;font-variant-alternates:normal;font-variant-east-asian:normal;font-feature-settings:normal;font-variation-settings:normal;text-indent:0;text-align:start;text-decoration:none;text-decoration-line:none;text-decoration-style:solid;text-decoration-color:#000000;letter-spacing:normal;word-spacing:normal;text-transform:none;writing-mode:lr-tb;direction:ltr;text-orientation:mixed;dominant-baseline:auto;baseline-shift:baseline;text-anchor:start;white-space:normal;shape-padding:0;shape-margin:0;inline-size:0;clip-rule:nonzero;display:inline;overflow:visible;visibility:visible;isolation:auto;mix-blend-mode:normal;color-interpolation:sRGB;color-interpolation-filters:linearRGB;solid-color:#000000;solid-opacity:1;vector-effect:none;fill:#5b6571;fill-opacity:1;fill-rule:nonzero;stroke:none;stroke-width:0.529167;stroke-linecap:round;stroke-linejoin:round;stroke-miterlimit:4;stroke-dasharray:none;stroke-dashoffset:0;stroke-opacity:1;color-rendering:auto;image-rendering:auto;shape-rendering:auto;text-rendering:auto;enable-background:accumulate;stop-color:#000000"
           d="m -15.084867,258.0396 c 0.396559,-0.19418 0.834051,-0.52767 1.073319,-1.08831 0.0776,-0.18183 0.129482,-0.38751 0.157097,-0.61288 0.0027,-0.0216 0.0056,-0.0431 0.0078,-0.0651 0.0051,-0.0528 0.0088,-0.10656 0.01085,-0.16175 0.0013,-0.034 9e-4,-0.069 10e-4,-0.10387 1.33e-4,-0.0538 7.14e-4,-0.10729 -0.0021,-0.1633 -2.4e-5,-5.3e-4 2.6e-5,-0.001 0,-0.002 -0.0039,-0.0812 -0.0108,-0.16468 -0.02119,-0.25063 -0.0051,-0.0417 -0.01348,-0.0853 -0.02015,-0.12816 -0.0096,-0.0624 -0.01999,-0.12536 -0.03307,-0.19017 -0.0089,-0.0436 -0.019,-0.0881 -0.02946,-0.1328 -0.01666,-0.0716 -0.03593,-0.14463 -0.05684,-0.21911 -0.0106,-0.0377 -0.02033,-0.0748 -0.03204,-0.11317 -0.03551,-0.11663 -0.07473,-0.23603 -0.120923,-0.35967 v -5.3e-4 c -0.0028,-0.007 -0.006,-0.0132 -0.0093,-0.0196 -1.72e-4,-2.7e-4 -3.44e-4,-8e-4 -5.3e-4,-0.001 v -5.3e-4 c 0,0 -0.01456,-0.0297 -0.04289,-0.0806 -5.1e-5,-1e-4 5.1e-5,-5.3e-4 0,-5.3e-4 -0.05719,-0.10268 -0.172267,-0.29107 -0.345199,-0.49765 -7.9e-5,-9e-5 8e-5,-5.3e-4 0,-5.3e-4 -0.04327,-0.0517 -0.08997,-0.1042 -0.140559,-0.15709 -0.05059,-0.0529 -0.104842,-0.10614 -0.162781,-0.15813 -0.159694,-0.14329 -0.355609,-0.27283 -0.581877,-0.37207 -0.226268,-0.0993 -0.482712,-0.16793 -0.764294,-0.1881 -0.187722,-0.0135 -0.386662,-0.006 -0.594796,0.0289 -0.254908,-0.4102 -0.5243,-0.76773 -0.803569,-1.07848 -8.5e-5,-1e-4 8.5e-5,-5.3e-4 0,-5.3e-4 -0.18624,-0.20722 -0.376925,-0.3933 -0.571024,-0.56018 -0.194099,-0.16687 -0.391601,-0.31426 -0.591179,-0.4439 -0.199577,-0.12964 -0.401421,-0.24142 -0.604097,-0.33693 -0.506692,-0.23877 -1.019257,-0.37565 -1.519287,-0.43511 -0.200013,-0.0238 -0.397947,-0.0357 -0.592729,-0.0362 v 5.3e-4 c -0.103883,-2.6e-4 -0.206628,0.003 -0.308508,0.008 -0.193049,0.0107 -0.381172,0.0307 -0.563273,0.0574 -0.364204,0.0533 -0.705101,0.13502 -1.01751,0.23152 -0.312408,0.0965 -0.596003,0.20761 -0.845943,0.31987 -0.374909,0.16841 -0.67365,0.33885 -0.877982,0.46561 -0.05586,-0.0694 -0.115265,-0.13607 -0.177767,-0.19999 -0.125005,-0.12785 -0.262579,-0.24377 -0.411861,-0.34417 -0.07464,-0.0502 -0.152411,-0.0965 -0.232544,-0.13849 -0.320534,-0.16789 -0.683387,-0.26665 -1.076418,-0.26665 -0.108474,0 -0.214487,0.009 -0.31936,0.0227 -0.02696,0.003 -0.05342,0.008 -0.0801,0.0124 -0.08523,0.0138 -0.169013,0.032 -0.251148,0.0543 -0.01855,0.005 -0.03744,0.009 -0.05581,0.0145 -0.101087,0.03 -0.199218,0.0665 -0.294555,0.10852 -0.01035,0.005 -0.02022,0.01 -0.03049,0.0145 -0.08691,0.0397 -0.170932,0.0842 -0.252183,0.13333 -0.01386,0.008 -0.02766,0.0167 -0.04134,0.0253 -0.181327,0.11441 -0.346509,0.25091 -0.492474,0.40669 -0.0041,0.004 -0.0078,0.009 -0.01188,0.0134 -0.0727,0.0787 -0.140877,0.16155 -0.203089,0.24909 -7.94e-4,0.001 -0.0013,0.002 -0.0021,0.003 -0.288108,0.40669 -0.459402,0.90132 -0.459404,1.43609 0,0.1755 0.02352,0.34409 0.06356,0.50591 0.212937,-0.93526 0.953339,-1.67078 1.889808,-1.87947 1.032462,-0.30752 1.503869,0.57428 1.829911,1.185 1.267144,-0.62192 2.13529,-1.25443 3.689698,-1.34924 2.551715,0.0523 3.141291,0.88265 4.156336,2.86081 1.317507,-0.10826 2.089968,0.006 2.700681,1.40017 0.436954,0.89104 0.365285,1.8494 0.06556,2.57893 z"
           sodipodi:nodetypes="csccccscccccccccsccscscsssscscsssscccssscssssscccccccscscscccccccc" />
        <path
           id="path1750"
           style="color:#000000;font-style:normal;font-variant:normal;font-weight:normal;font-stretch:normal;font-size:medium;line-height:normal;font-family:sans-serif;font-variant-ligatures:normal;font-variant-position:normal;font-variant-caps:normal;font-variant-numeric:normal;font-variant-alternates:normal;font-variant-east-asian:normal;font-feature-settings:normal;font-variation-settings:normal;text-indent:0;text-align:start;text-decoration:none;text-decoration-line:none;text-decoration-style:solid;text-decoration-color:#000000;letter-spacing:normal;word-spacing:normal;text-transform:none;writing-mode:lr-tb;direction:ltr;text-orientation:mixed;dominant-baseline:auto;baseline-shift:baseline;text-anchor:start;white-space:normal;shape-padding:0;shape-margin:0;inline-size:0;clip-rule:nonzero;display:inline;overflow:visible;visibility:visible;isolation:auto;mix-blend-mode:normal;color-interpolation:sRGB;color-interpolation-filters:linearRGB;solid-color:#000000;solid-opacity:1;vector-effect:none;fill:#5b6571;fill-opacity:1;fill-rule:nonzero;stroke:none;stroke-width:2;stroke-linecap:round;stroke-linejoin:round;stroke-miterlimit:4;stroke-dasharray:none;stroke-dashoffset:0;stroke-opacity:1;color-rendering:auto;image-rendering:auto;shape-rendering:auto;text-rendering:auto;enable-background:accumulate;stop-color:#000000"
           d="m -73.361328,-97.685547 c -3.365178,0 -5.990268,1.609314 -8.171875,3.683594 -1.612407,-1.24509 -3.551141,-2.111328 -5.845703,-2.111328 -5.861095,0 -10.689453,4.828351 -10.689453,10.689453 0,0.437291 0.219832,0.500123 0.28125,0.884766 -0.03402,0.02268 -0.04802,0.0048 -0.08203,0.03125 -1.606284,1.148353 -2.972751,2.879744 -3.890631,5.072265 1.17694,0.03667 3.104144,0.08841 6.230475,0.109375 a 1.0001006,1.0001006 0 0 0 0.103516,0 l 37.832031,-3.71289 a 1.0001006,1.0001006 0 0 0 0.318359,-0.08203 c 1.370256,-0.623697 2.919263,-1.691567 3.925782,-3.455078 -0.475952,-0.486249 -1.030703,-0.979189 -1.675782,-1.43164 -1.991618,-1.396952 -4.630981,-1.654903 -7.388671,-1.328126 -1.98468,-4.578633 -5.626489,-8.349609 -10.947266,-8.349609 z"
           transform="matrix(0.26458334,0,0,0.26458334,0,280.06666)" />
        <path
           style="color:#000000;font-style:normal;font-variant:normal;font-weight:normal;font-stretch:normal;font-size:medium;line-height:normal;font-family:sans-serif;font-variant-ligatures:normal;font-variant-position:normal;font-variant-caps:normal;font-variant-numeric:normal;font-variant-alternates:normal;font-variant-east-asian:normal;font-feature-settings:normal;font-variation-settings:normal;text-indent:0;text-align:start;text-decoration:none;text-decoration-line:none;text-decoration-style:solid;text-decoration-color:#000000;letter-spacing:normal;word-spacing:normal;text-transform:none;writing-mode:lr-tb;direction:ltr;text-orientation:mixed;dominant-baseline:auto;baseline-shift:baseline;text-anchor:start;white-space:normal;shape-padding:0;shape-margin:0;inline-size:0;clip-rule:nonzero;display:inline;overflow:visible;visibility:visible;isolation:auto;mix-blend-mode:normal;color-interpolation:sRGB;color-interpolation-filters:linearRGB;solid-color:#000000;solid-opacity:1;vector-effect:none;fill:#aabfd0;fill-opacity:1;fill-rule:nonzero;stroke:none;stroke-width:0.529167;stroke-linecap:round;stroke-linejoin:round;stroke-miterlimit:4;stroke-dasharray:none;stroke-dashoffset:0;stroke-opacity:1;color-rendering:auto;image-rendering:auto;shape-rendering:auto;text-rendering:auto;enable-background:accumulate;stop-color:#000000"
           d="m -19.410156,255.21289 c -0.992694,0 -1.755639,0.64441 -2.15625,1.48633 -0.301916,-0.60268 -0.836381,-1.07031 -1.552735,-1.07031 -1.010835,0 -1.835937,0.82509 -1.835937,1.83593 0,0.30843 0.15398,0.56326 0.292969,0.82032 -0.213357,0.0441 -0.425269,0.0634 -0.65625,0.22851 -0.338768,0.24219 -0.645855,0.64974 -0.816407,1.27539 a 0.26460996,0.26460996 0 0 0 -0.0078,0.0332 c 0,0 -0.06907,0.47847 0.191406,0.95898 0.260474,0.48051 0.869615,0.93896 2.019531,0.94922 0.0069,2.7e-4 1.348671,0.054 3.033203,0.0176 1.67659,-0.0362 3.674598,-0.16036 5.066407,-0.52539 0.01054,-7e-4 0.581306,-0.0375 1.0625,-0.42383 0.242809,-0.19494 0.461166,-0.4881 0.544922,-0.88867 0.08376,-0.40057 0.03591,-0.895 -0.197266,-1.50196 a 0.26460996,0.26460996 0 0 0 -0.0098,-0.0234 c 0,0 -0.222098,-0.45774 -0.697265,-0.79102 -0.424262,-0.29758 -1.10725,-0.40992 -1.90625,-0.10352 -0.158337,-1.27692 -1.111499,-2.27734 -2.375,-2.27734 z"
           id="path1713" />
      </g>
      <path
         id="path1771"
         d="m -24.152344,262.25 a 0.2645835,0.2645835 0 0 0 -0.265625,0.26367 v 1.0586 a 0.2645835,0.2645835 0 0 0 0.265625,0.26562 0.2645835,0.2645835 0 0 0 0.263672,-0.26562 v -1.0586 A 0.2645835,0.2645835 0 0 0 -24.152344,262.25 Z"
         style="color:#000000;font-style:normal;font-variant:normal;font-weight:normal;font-stretch:normal;font-size:medium;line-height:normal;font-family:sans-serif;font-variant-ligatures:normal;font-variant-position:normal;font-variant-caps:normal;font-variant-numeric:normal;font-variant-alternates:normal;font-variant-east-asian:normal;font-feature-settings:normal;font-variation-settings:normal;text-indent:0;text-align:start;text-decoration:none;text-decoration-line:none;text-decoration-style:solid;text-decoration-color:#000000;letter-spacing:normal;word-spacing:normal;text-transform:none;writing-mode:lr-tb;direction:ltr;text-orientation:mixed;dominant-baseline:auto;baseline-shift:baseline;text-anchor:start;white-space:normal;shape-padding:0;shape-margin:0;inline-size:0;clip-rule:nonzero;display:inline;overflow:visible;visibility:visible;opacity:1;isolation:auto;mix-blend-mode:normal;color-interpolation:sRGB;color-interpolation-filters:linearRGB;solid-color:#000000;solid-opacity:1;vector-effect:none;fill:#2276bc;fill-opacity:1;fill-rule:nonzero;stroke:none;stroke-width:0.529167;stroke-linecap:round;stroke-linejoin:round;stroke-miterlimit:4;stroke-dasharray:none;stroke-dashoffset:0;stroke-opacity:1;color-rendering:auto;image-rendering:auto;shape-rendering:auto;text-rendering:auto;enable-background:accumulate;stop-color:#000000;stop-opacity:1" />
      <path
         id="path1775"
         d="m -22.037109,262.25 a 0.2645835,0.2645835 0 0 0 -0.263672,0.26367 v 1.0586 a 0.2645835,0.2645835 0 0 0 0.263672,0.26562 0.2645835,0.2645835 0 0 0 0.265625,-0.26562 v -1.0586 A 0.2645835,0.2645835 0 0 0 -22.037109,262.25 Z"
         style="color:#000000;font-style:normal;font-variant:normal;font-weight:normal;font-stretch:normal;font-size:medium;line-height:normal;font-family:sans-serif;font-variant-ligatures:normal;font-variant-position:normal;font-variant-caps:normal;font-variant-numeric:normal;font-variant-alternates:normal;font-variant-east-asian:normal;font-feature-settings:normal;font-variation-settings:normal;text-indent:0;text-align:start;text-decoration:none;text-decoration-line:none;text-decoration-style:solid;text-decoration-color:#000000;letter-spacing:normal;word-spacing:normal;text-transform:none;writing-mode:lr-tb;direction:ltr;text-orientation:mixed;dominant-baseline:auto;baseline-shift:baseline;text-anchor:start;white-space:normal;shape-padding:0;shape-margin:0;inline-size:0;clip-rule:nonzero;display:inline;overflow:visible;visibility:visible;opacity:1;isolation:auto;mix-blend-mode:normal;color-interpolation:sRGB;color-interpolation-filters:linearRGB;solid-color:#000000;solid-opacity:1;vector-effect:none;fill:#2276bc;fill-opacity:1;fill-rule:nonzero;stroke:none;stroke-width:0.529167;stroke-linecap:round;stroke-linejoin:round;stroke-miterlimit:4;stroke-dasharray:none;stroke-dashoffset:0;stroke-opacity:1;color-rendering:auto;image-rendering:auto;shape-rendering:auto;text-rendering:auto;enable-background:accumulate;stop-color:#000000;stop-opacity:1" />
      <path
         id="path1779"
         d="m -19.919922,262.25 a 0.2645835,0.2645835 0 0 0 -0.263672,0.26367 v 1.0586 a 0.2645835,0.2645835 0 0 0 0.263672,0.26562 0.2645835,0.2645835 0 0 0 0.265625,-0.26562 v -1.0586 A 0.2645835,0.2645835 0 0 0 -19.919922,262.25 Z"
         style="color:#000000;font-style:normal;font-variant:normal;font-weight:normal;font-stretch:normal;font-size:medium;line-height:normal;font-family:sans-serif;font-variant-ligatures:normal;font-variant-position:normal;font-variant-caps:normal;font-variant-numeric:normal;font-variant-alternates:normal;font-variant-east-asian:normal;font-feature-settings:normal;font-variation-settings:normal;text-indent:0;text-align:start;text-decoration:none;text-decoration-line:none;text-decoration-style:solid;text-decoration-color:#000000;letter-spacing:normal;word-spacing:normal;text-transform:none;writing-mode:lr-tb;direction:ltr;text-orientation:mixed;dominant-baseline:auto;baseline-shift:baseline;text-anchor:start;white-space:normal;shape-padding:0;shape-margin:0;inline-size:0;clip-rule:nonzero;display:inline;overflow:visible;visibility:visible;opacity:1;isolation:auto;mix-blend-mode:normal;color-interpolation:sRGB;color-interpolation-filters:linearRGB;solid-color:#000000;solid-opacity:1;vector-effect:none;fill:#2276bc;fill-opacity:1;fill-rule:nonzero;stroke:none;stroke-width:0.529167;stroke-linecap:round;stroke-linejoin:round;stroke-miterlimit:4;stroke-dasharray:none;stroke-dashoffset:0;stroke-opacity:1;color-rendering:auto;image-rendering:auto;shape-rendering:auto;text-rendering:auto;enable-background:accumulate;stop-color:#000000;stop-opacity:1" />
      <path
         id="path1783"
         d="m -17.802734,262.25 a 0.2645835,0.2645835 0 0 0 -0.265625,0.26367 v 1.0586 a 0.2645835,0.2645835 0 0 0 0.265625,0.26562 0.2645835,0.2645835 0 0 0 0.263672,-0.26562 v -1.0586 A 0.2645835,0.2645835 0 0 0 -17.802734,262.25 Z"
         style="color:#000000;font-style:normal;font-variant:normal;font-weight:normal;font-stretch:normal;font-size:medium;line-height:normal;font-family:sans-serif;font-variant-ligatures:normal;font-variant-position:normal;font-variant-caps:normal;font-variant-numeric:normal;font-variant-alternates:normal;font-variant-east-asian:normal;font-feature-settings:normal;font-variation-settings:normal;text-indent:0;text-align:start;text-decoration:none;text-decoration-line:none;text-decoration-style:solid;text-decoration-color:#000000;letter-spacing:normal;word-spacing:normal;text-transform:none;writing-mode:lr-tb;direction:ltr;text-orientation:mixed;dominant-baseline:auto;baseline-shift:baseline;text-anchor:start;white-space:normal;shape-padding:0;shape-margin:0;inline-size:0;clip-rule:nonzero;display:inline;overflow:visible;visibility:visible;opacity:1;isolation:auto;mix-blend-mode:normal;color-interpolation:sRGB;color-interpolation-filters:linearRGB;solid-color:#000000;solid-opacity:1;vector-effect:none;fill:#2276bc;fill-opacity:1;fill-rule:nonzero;stroke:none;stroke-width:0.529167;stroke-linecap:round;stroke-linejoin:round;stroke-miterlimit:4;stroke-dasharray:none;stroke-dashoffset:0;stroke-opacity:1;color-rendering:auto;image-rendering:auto;shape-rendering:auto;text-rendering:auto;enable-background:accumulate;stop-color:#000000;stop-opacity:1" />
      <path
         id="path1787"
         d="m -25.210938,264.36719 a 0.2645835,0.2645835 0 0 0 -0.265624,0.26367 v 1.05859 a 0.2645835,0.2645835 0 0 0 0.265624,0.26367 0.2645835,0.2645835 0 0 0 0.263672,-0.26367 v -1.05859 a 0.2645835,0.2645835 0 0 0 -0.263672,-0.26367 z"
         style="color:#000000;font-style:normal;font-variant:normal;font-weight:normal;font-stretch:normal;font-size:medium;line-height:normal;font-family:sans-serif;font-variant-ligatures:normal;font-variant-position:normal;font-variant-caps:normal;font-variant-numeric:normal;font-variant-alternates:normal;font-variant-east-asian:normal;font-feature-settings:normal;font-variation-settings:normal;text-indent:0;text-align:start;text-decoration:none;text-decoration-line:none;text-decoration-style:solid;text-decoration-color:#000000;letter-spacing:normal;word-spacing:normal;text-transform:none;writing-mode:lr-tb;direction:ltr;text-orientation:mixed;dominant-baseline:auto;baseline-shift:baseline;text-anchor:start;white-space:normal;shape-padding:0;shape-margin:0;inline-size:0;clip-rule:nonzero;display:inline;overflow:visible;visibility:visible;opacity:1;isolation:auto;mix-blend-mode:normal;color-interpolation:sRGB;color-interpolation-filters:linearRGB;solid-color:#000000;solid-opacity:1;vector-effect:none;fill:#2276bc;fill-opacity:1;fill-rule:nonzero;stroke:none;stroke-width:0.529167;stroke-linecap:round;stroke-linejoin:round;stroke-miterlimit:4;stroke-dasharray:none;stroke-dashoffset:0;stroke-opacity:1;color-rendering:auto;image-rendering:auto;shape-rendering:auto;text-rendering:auto;enable-background:accumulate;stop-color:#000000;stop-opacity:1" />
      <path
         id="path1792"
         d="m -23.09375,264.36719 a 0.2645835,0.2645835 0 0 0 -0.265625,0.26367 v 1.05859 a 0.2645835,0.2645835 0 0 0 0.265625,0.26367 0.2645835,0.2645835 0 0 0 0.263672,-0.26367 v -1.05859 a 0.2645835,0.2645835 0 0 0 -0.263672,-0.26367 z"
         style="color:#000000;font-style:normal;font-variant:normal;font-weight:normal;font-stretch:normal;font-size:medium;line-height:normal;font-family:sans-serif;font-variant-ligatures:normal;font-variant-position:normal;font-variant-caps:normal;font-variant-numeric:normal;font-variant-alternates:normal;font-variant-east-asian:normal;font-feature-settings:normal;font-variation-settings:normal;text-indent:0;text-align:start;text-decoration:none;text-decoration-line:none;text-decoration-style:solid;text-decoration-color:#000000;letter-spacing:normal;word-spacing:normal;text-transform:none;writing-mode:lr-tb;direction:ltr;text-orientation:mixed;dominant-baseline:auto;baseline-shift:baseline;text-anchor:start;white-space:normal;shape-padding:0;shape-margin:0;inline-size:0;clip-rule:nonzero;display:inline;overflow:visible;visibility:visible;opacity:1;isolation:auto;mix-blend-mode:normal;color-interpolation:sRGB;color-interpolation-filters:linearRGB;solid-color:#000000;solid-opacity:1;vector-effect:none;fill:#2276bc;fill-opacity:1;fill-rule:nonzero;stroke:none;stroke-width:0.529167;stroke-linecap:round;stroke-linejoin:round;stroke-miterlimit:4;stroke-dasharray:none;stroke-dashoffset:0;stroke-opacity:1;color-rendering:auto;image-rendering:auto;shape-rendering:auto;text-rendering:auto;enable-background:accumulate;stop-color:#000000;stop-opacity:1" />
      <path
         id="path1796"
         d="m -20.978516,264.36719 a 0.2645835,0.2645835 0 0 0 -0.263672,0.26367 v 1.05859 a 0.2645835,0.2645835 0 0 0 0.263672,0.26367 0.2645835,0.2645835 0 0 0 0.265625,-0.26367 v -1.05859 a 0.2645835,0.2645835 0 0 0 -0.265625,-0.26367 z"
         style="color:#000000;font-style:normal;font-variant:normal;font-weight:normal;font-stretch:normal;font-size:medium;line-height:normal;font-family:sans-serif;font-variant-ligatures:normal;font-variant-position:normal;font-variant-caps:normal;font-variant-numeric:normal;font-variant-alternates:normal;font-variant-east-asian:normal;font-feature-settings:normal;font-variation-settings:normal;text-indent:0;text-align:start;text-decoration:none;text-decoration-line:none;text-decoration-style:solid;text-decoration-color:#000000;letter-spacing:normal;word-spacing:normal;text-transform:none;writing-mode:lr-tb;direction:ltr;text-orientation:mixed;dominant-baseline:auto;baseline-shift:baseline;text-anchor:start;white-space:normal;shape-padding:0;shape-margin:0;inline-size:0;clip-rule:nonzero;display:inline;overflow:visible;visibility:visible;opacity:1;isolation:auto;mix-blend-mode:normal;color-interpolation:sRGB;color-interpolation-filters:linearRGB;solid-color:#000000;solid-opacity:1;vector-effect:none;fill:#2276bc;fill-opacity:1;fill-rule:nonzero;stroke:none;stroke-width:0.529167;stroke-linecap:round;stroke-linejoin:round;stroke-miterlimit:4;stroke-dasharray:none;stroke-dashoffset:0;stroke-opacity:1;color-rendering:auto;image-rendering:auto;shape-rendering:auto;text-rendering:auto;enable-background:accumulate;stop-color:#000000;stop-opacity:1" />
      <path
         id="path1800"
         d="m -18.861328,264.36719 a 0.2645835,0.2645835 0 0 0 -0.263672,0.26367 v 1.05859 a 0.2645835,0.2645835 0 0 0 0.263672,0.26367 0.2645835,0.2645835 0 0 0 0.265625,-0.26367 v -1.05859 a 0.2645835,0.2645835 0 0 0 -0.265625,-0.26367 z"
         style="color:#000000;font-style:normal;font-variant:normal;font-weight:normal;font-stretch:normal;font-size:medium;line-height:normal;font-family:sans-serif;font-variant-ligatures:normal;font-variant-position:normal;font-variant-caps:normal;font-variant-numeric:normal;font-variant-alternates:normal;font-variant-east-asian:normal;font-feature-settings:normal;font-variation-settings:normal;text-indent:0;text-align:start;text-decoration:none;text-decoration-line:none;text-decoration-style:solid;text-decoration-color:#000000;letter-spacing:normal;word-spacing:normal;text-transform:none;writing-mode:lr-tb;direction:ltr;text-orientation:mixed;dominant-baseline:auto;baseline-shift:baseline;text-anchor:start;white-space:normal;shape-padding:0;shape-margin:0;inline-size:0;clip-rule:nonzero;display:inline;overflow:visible;visibility:visible;opacity:1;isolation:auto;mix-blend-mode:normal;color-interpolation:sRGB;color-interpolation-filters:linearRGB;solid-color:#000000;solid-opacity:1;vector-effect:none;fill:#2276bc;fill-opacity:1;fill-rule:nonzero;stroke:none;stroke-width:0.529167;stroke-linecap:round;stroke-linejoin:round;stroke-miterlimit:4;stroke-dasharray:none;stroke-dashoffset:0;stroke-opacity:1;color-rendering:auto;image-rendering:auto;shape-rendering:auto;text-rendering:auto;enable-background:accumulate;stop-color:#000000;stop-opacity:1" />
    </g>
  </g>
</svg>
